<svg xmlns="http://www.w3.org/2000/svg" xmlns:xlink="http://www.w3.org/1999/xlink" width="40" height="44" viewBox="195 295 380 415" preserveAspectRatio="xMidYMid meet" version="1.0"><defs><clipPath id="d7b71662e2"><path d="M 215 315 L 551 315 L 551 685 L 215 685 Z M 215 315 " clip-rule="nonzero"/></clipPath><clipPath id="3967be4601"><path d="M 198.050781 486.34375 L 413.65625 198.050781 L 701.949219 413.65625 L 486.34375 701.949219 Z M 198.050781 486.34375 " clip-rule="nonzero"/></clipPath><clipPath id="38cfd33f0c"><path d="M 198.050781 486.34375 L 413.65625 198.050781 L 701.949219 413.65625 L 486.34375 701.949219 Z M 198.050781 486.34375 " clip-rule="nonzero"/></clipPath><clipPath id="d2d16f959c"><path d="M 204 304 L 562 304 L 562 696 L 204 696 Z M 204 304 " clip-rule="nonzero"/></clipPath><clipPath id="9e57e1a7b5"><path d="M 198.050781 486.34375 L 413.65625 198.050781 L 701.949219 413.65625 L 486.34375 701.949219 Z M 198.050781 486.34375 " clip-rule="nonzero"/></clipPath><clipPath id="bf53c283b7"><path d="M 198.050781 486.34375 L 413.65625 198.050781 L 701.949219 413.65625 L 486.34375 701.949219 Z M 198.050781 486.34375 " clip-rule="nonzero"/></clipPath></defs><g clip-path="url(#d7b71662e2)"><g clip-path="url(#3967be4601)"><g clip-path="url(#38cfd33f0c)"><path fill="#2a4879" d="M 215.597656 483.414062 L 550.773438 315.253906 L 484.195312 684.289062 L 416.855469 494.320312 Z M 215.597656 483.414062 " fill-opacity="1" fill-rule="evenodd"/></g></g></g><g clip-path="url(#d2d16f959c)"><g clip-path="url(#9e57e1a7b5)"><g clip-path="url(#bf53c283b7)"><path stroke-linecap="round" transform="matrix(6.695823, -8.953273, 8.953273, 6.695823, -2824.008591, 583.545469)" fill="none" stroke-linejoin="round" d="M 169.999967 212.359946 L 200.000026 227.360125 L 169.999917 242.359925 L 179.999877 227.360068 Z M 169.999967 212.359946 " stroke="#000000" stroke-width="2" stroke-opacity="1" stroke-miterlimit="4"/></g></g></g></svg>
